<svg id="Layer_1" height="512" viewBox="0 0 128 128" width="512" xmlns="http://www.w3.org/2000/svg" data-name="Layer 1"><path d="m106.933 98.345-41.351-87.316a1.75 1.75 0 0 0 -3.163 0l-41.352 87.316a1.75 1.75 0 0 0 .344 1.986 60.3 60.3 0 0 0 85.177 0 1.75 1.75 0 0 0 .345-1.986zm-36.965-69.877 6.977 14.732a8.407 8.407 0 0 1 -.861.049 8.677 8.677 0 0 1 -8.667-8.667 8.583 8.583 0 0 1 2.551-6.114zm-5.968-12.601 4.4 9.293a12.137 12.137 0 0 0 10.1 21.332l19.477 41.119a51.75 51.75 0 0 1 -33.977 13.489h-.634a5.948 5.948 0 0 0 -4.211 1.689 5.794 5.794 0 0 0 -1.739 4.157 1.583 1.583 0 0 1 -1.671 1.581 1.709 1.709 0 0 1 -1.5-1.77v-20.257a5.106 5.106 0 0 0 -1.584-3.687 5.033 5.033 0 0 0 -3.77-1.389 5.181 5.181 0 0 0 -4.812 5.265v14.478a1.583 1.583 0 0 1 -1.671 1.581 1.709 1.709 0 0 1 -1.5-1.77 9.857 9.857 0 0 0 -4.487-8.291 47.273 47.273 0 0 1 -6.421-5.025l4.84-10.221a7.8 7.8 0 1 0 6.56-13.859zm-24.147 50.989a4.289 4.289 0 1 1 -3.466 7.318zm-15.089 31.86 3.662-7.733a51.4 51.4 0 0 0 6.094 4.637 6.37 6.37 0 0 1 2.9 5.358 5.182 5.182 0 0 0 4.813 5.265 5.084 5.084 0 0 0 5.354-5.076v-14.479a1.709 1.709 0 0 1 1.5-1.77 1.551 1.551 0 0 1 1.178.432 1.57 1.57 0 0 1 .485 1.15v20.253a5.181 5.181 0 0 0 4.812 5.265q.138.007.275.007a5.037 5.037 0 0 0 3.494-1.4 5.106 5.106 0 0 0 1.584-3.687 2.32 2.32 0 0 1 .7-1.665 2.348 2.348 0 0 1 1.706-.681h.684a55.467 55.467 0 0 0 35.543-13.664l3.688 7.787a56.8 56.8 0 0 1 -78.472.001z"/><path d="m60.761 80.362a11.8 11.8 0 1 0 11.8-11.8 11.817 11.817 0 0 0 -11.8 11.8zm11.8-8.3a8.3 8.3 0 1 1 -8.3 8.3 8.313 8.313 0 0 1 8.303-8.304z"/><path d="m57.271 63.834a1.749 1.749 0 0 0 2.475 0l5.48-5.48a1.749 1.749 0 0 0 0-2.475l-5.48-5.48a1.749 1.749 0 0 0 -2.475 0l-5.48 5.48a1.749 1.749 0 0 0 0 2.475zm1.237-9.722 3 3-3 3-3-3z"/></svg>